<svg xmlns="http://www.w3.org/2000/svg" xmlns:xlink="http://www.w3.org/1999/xlink" width="512" zoomAndPan="magnify" viewBox="0 0 384 383.999986" height="512" preserveAspectRatio="xMidYMid meet" version="1.0"><path fill="#000000" d="M 304 0 L 80 0 C 35.824219 0 0 35.824219 0 80 L 0 304 C 0 348.175781 35.824219 384 80 384 L 304 384 C 348.191406 384 384 348.175781 384 304 L 384 80 C 384 35.824219 348.191406 0 304 0 Z M 232.542969 313.441406 C 226.0625 314.6875 224 310.703125 224 307.296875 L 224 272.175781 C 224 260.222656 219.808594 252.449219 215.199219 248.480469 C 243.710938 245.3125 273.664062 234.480469 273.664062 185.328125 C 273.664062 171.34375 268.671875 159.921875 260.496094 150.976562 C 261.808594 147.742188 266.191406 134.71875 259.230469 117.105469 C 259.230469 117.105469 248.496094 113.664062 224.0625 130.222656 C 213.824219 127.34375 202.878906 125.953125 192 125.886719 C 181.121094 125.9375 170.175781 127.34375 159.953125 130.191406 C 135.503906 113.632812 124.753906 117.070312 124.753906 117.070312 C 117.808594 134.703125 122.191406 147.710938 123.519531 150.960938 C 115.328125 159.921875 110.335938 171.328125 110.335938 185.3125 C 110.335938 234.335938 140.207031 245.328125 168.65625 248.574219 C 164.992188 251.777344 161.679688 257.40625 160.527344 265.695312 C 153.214844 268.960938 134.703125 274.609375 123.28125 255.039062 C 123.28125 255.039062 116.511719 242.753906 103.648438 241.839844 C 103.648438 241.839844 91.167969 241.679688 102.769531 249.632812 C 102.769531 249.632812 111.167969 253.566406 116.992188 268.351562 C 116.992188 268.351562 124.398438 291.199219 160 283.457031 L 160 307.28125 C 160 310.65625 157.9375 314.625 151.550781 313.441406 C 100.671875 296.527344 64 248.542969 64 192 C 64 121.296875 121.3125 64 192 64 C 262.6875 64 320 121.296875 320 192 C 320 248.527344 283.375 296.496094 232.542969 313.441406 Z M 232.542969 313.441406 " fill-opacity="1" fill-rule="nonzero"/></svg>