<svg xmlns="http://www.w3.org/2000/svg" xmlns:xlink="http://www.w3.org/1999/xlink" width="512" zoomAndPan="magnify" viewBox="0 0 384 383.999986" height="512" preserveAspectRatio="xMidYMid meet" version="1.0"><path fill="#0277b5" d="M 351.921875 0 L 32.273438 0 C 14.597656 0 0.382812 14.40625 0.382812 31.886719 L 0.382812 352.113281 C 0.382812 369.785156 14.792969 384 32.273438 384 L 351.726562 384 C 369.402344 384 383.617188 369.59375 383.617188 352.113281 L 383.617188 31.886719 C 383.808594 14.40625 369.59375 0 351.921875 0 Z M 113.914062 316.765625 L 57.246094 316.765625 L 57.246094 146.570312 L 113.914062 146.570312 Z M 85.484375 126.015625 C 67.617188 126.015625 53.210938 111.609375 53.210938 93.742188 C 53.210938 75.878906 67.617188 61.472656 85.484375 61.472656 C 103.347656 61.472656 117.753906 75.878906 117.753906 93.742188 C 117.753906 111.609375 103.347656 126.015625 85.484375 126.015625 Z M 327.140625 316.765625 L 270.277344 316.765625 L 268.933594 215.722656 C 268.933594 215.722656 270.277344 188.832031 240.886719 189.023438 C 211.496094 189.214844 207.464844 215.722656 207.464844 215.722656 L 207.464844 316.765625 L 150.21875 316.765625 L 150.21875 146.570312 L 205.160156 146.570312 L 205.160156 170.003906 C 205.160156 170.003906 207.464844 162.320312 220.140625 153.292969 C 232.820312 144.265625 253.757812 142.34375 262.789062 142.726562 C 271.816406 143.113281 284.109375 141.574219 304.664062 155.789062 C 326.753906 170.964844 327.332031 210.730469 327.332031 210.730469 Z M 327.140625 316.765625 " fill-opacity="1" fill-rule="nonzero"/></svg>